<svg xmlns="http://www.w3.org/2000/svg" viewBox="0 0 100 100">
  <defs>
    <clipPath id="c">
      <circle cx="50" cy="50" r="40"/>
    </clipPath>
  </defs>
  <circle cx="50" cy="50" r="40" fill="#EBF4F0"/>
  <g clip-path="url(#c)" stroke="#B8D5C8" stroke-width="2.5" fill="none">
    <line x1="0" y1="26" x2="100" y2="26"/>
    <line x1="0" y1="38" x2="100" y2="38"/>
    <line x1="0" y1="50" x2="100" y2="50"/>
    <line x1="0" y1="62" x2="100" y2="62"/>
    <line x1="0" y1="74" x2="100" y2="74"/>
    <line x1="26" y1="0" x2="26" y2="100"/>
    <line x1="38" y1="0" x2="38" y2="100"/>
    <line x1="50" y1="0" x2="50" y2="100"/>
    <line x1="62" y1="0" x2="62" y2="100"/>
    <line x1="74" y1="0" x2="74" y2="100"/>
  </g>
  <circle cx="50" cy="50" r="40" stroke="#2A5C45" stroke-width="8" fill="none"/>
  <path d="M50 3 L56 44 L97 50 L56 56 L50 97 L44 56 L3 50 L44 44 Z" fill="#2A5C45"/>
  <circle cx="50" cy="50" r="5" fill="white"/>
</svg>
